<svg aria-hidden="true" style="position: absolute; width: 0; height: 0; overflow: hidden;" version="1.1" xmlns="http://www.w3.org/2000/svg" xmlns:xlink="http://www.w3.org/1999/xlink">
<defs>
<symbol id="marker" viewBox="0 0 16 28">
<title>marker</title>
<path d="M12 10c0-2.203-1.797-4-4-4s-4 1.797-4 4 1.797 4 4 4 4-1.797 4-4zM16 10c0 0.953-0.109 1.937-0.516 2.797l-5.688 12.094c-0.328 0.688-1.047 1.109-1.797 1.109s-1.469-0.422-1.781-1.109l-5.703-12.094c-0.406-0.859-0.516-1.844-0.516-2.797 0-4.422 3.578-8 8-8s8 3.578 8 8z"></path>
</symbol>
<symbol id="link" viewBox="0 0 28 28">
<title>link</title>
<path d="M22 14.5v5c0 2.484-2.016 4.5-4.5 4.5h-13c-2.484 0-4.5-2.016-4.5-4.5v-13c0-2.484 2.016-4.5 4.5-4.5h11c0.281 0 0.5 0.219 0.5 0.5v1c0 0.281-0.219 0.5-0.5 0.5h-11c-1.375 0-2.5 1.125-2.5 2.5v13c0 1.375 1.125 2.5 2.5 2.5h13c1.375 0 2.5-1.125 2.5-2.5v-5c0-0.281 0.219-0.5 0.5-0.5h1c0.281 0 0.5 0.219 0.5 0.5zM28 1v8c0 0.547-0.453 1-1 1-0.266 0-0.516-0.109-0.703-0.297l-2.75-2.75-10.187 10.187c-0.094 0.094-0.234 0.156-0.359 0.156s-0.266-0.063-0.359-0.156l-1.781-1.781c-0.094-0.094-0.156-0.234-0.156-0.359s0.063-0.266 0.156-0.359l10.187-10.187-2.75-2.75c-0.187-0.187-0.297-0.438-0.297-0.703 0-0.547 0.453-1 1-1h8c0.547 0 1 0.453 1 1z"></path>
</symbol>
<symbol id="like" viewBox="0 0 25 28">
<title>like</title>
<path d="M4 21c0-0.547-0.453-1-1-1-0.562 0-1 0.453-1 1 0 0.562 0.438 1 1 1 0.547 0 1-0.438 1-1zM6.5 13v10c0 0.547-0.453 1-1 1h-4.5c-0.547 0-1-0.453-1-1v-10c0-0.547 0.453-1 1-1h4.5c0.547 0 1 0.453 1 1zM25 13c0 0.828-0.328 1.719-0.859 2.328 0.172 0.5 0.234 0.969 0.234 1.188 0.031 0.781-0.203 1.516-0.672 2.141 0.172 0.578 0.172 1.203 0 1.828-0.156 0.578-0.453 1.094-0.844 1.469 0.094 1.172-0.172 2.125-0.766 2.828-0.672 0.797-1.703 1.203-3.078 1.219h-2.016c-2.234 0-4.344-0.734-6.031-1.313-0.984-0.344-1.922-0.672-2.469-0.688-0.531-0.016-1-0.453-1-1v-10.016c0-0.516 0.438-0.953 0.953-1 0.578-0.047 2.078-1.906 2.766-2.812 0.562-0.719 1.094-1.391 1.578-1.875 0.609-0.609 0.781-1.547 0.969-2.453 0.172-0.922 0.359-1.891 1.031-2.547 0.187-0.187 0.438-0.297 0.703-0.297 3.5 0 3.5 2.797 3.5 4 0 1.281-0.453 2.188-0.875 3-0.172 0.344-0.328 0.5-0.453 1h4.328c1.625 0 3 1.375 3 3z"></path>
</symbol>
<symbol id="bag" viewBox="0 0 28 28">
<title>bag</title>
<path d="M27.453 22l0.547 4.891c0.031 0.281-0.063 0.562-0.25 0.781-0.187 0.203-0.469 0.328-0.75 0.328h-26c-0.281 0-0.562-0.125-0.75-0.328-0.187-0.219-0.281-0.5-0.25-0.781l0.547-4.891h26.906zM26 8.891l1.344 12.109h-26.688l1.344-12.109c0.063-0.5 0.484-0.891 1-0.891h4v2c0 1.109 0.891 2 2 2s2-0.891 2-2v-2h6v2c0 1.109 0.891 2 2 2s2-0.891 2-2v-2h4c0.516 0 0.938 0.391 1 0.891zM20 6v4c0 0.547-0.453 1-1 1s-1-0.453-1-1v-4c0-2.203-1.797-4-4-4s-4 1.797-4 4v4c0 0.547-0.453 1-1 1s-1-0.453-1-1v-4c0-3.313 2.688-6 6-6s6 2.688 6 6z"></path>
</symbol>
<symbol id="twitter" viewBox="0 0 512 512">
<title>twitter</title>
<path d="M459.37 151.716c.325 4.548.325 9.097.325 13.645 0 138.72-105.583 298.558-298.558 298.558-59.452 0-114.68-17.219-161.137-47.106 8.447.974 16.568 1.299 25.34 1.299 49.055 0 94.213-16.568 130.274-44.832-46.132-.975-84.792-31.188-98.112-72.772 6.498.974 12.995 1.624 19.818 1.624 9.421 0 18.843-1.3 27.614-3.573-48.081-9.747-84.143-51.98-84.143-102.985v-1.299c13.969 7.797 30.214 12.67 47.431 13.319-28.264-18.843-46.781-51.005-46.781-87.391 0-19.492 5.197-37.36 14.294-52.954 51.655 63.675 129.3 105.258 216.365 109.807-1.624-7.797-2.599-15.918-2.599-24.04 0-57.828 46.782-104.934 104.934-104.934 30.213 0 57.502 12.67 76.67 33.137 23.715-4.548 46.456-13.32 66.599-25.34-7.798 24.366-24.366 44.833-46.132 57.827 21.117-2.273 41.584-8.122 60.426-16.243-14.292 20.791-32.161 39.308-52.628 54.253z"></path>
</symbol>
<symbol id="github" viewBox="0 0 496 512">
<title>github</title>
<path d="M165.9 397.4c0 2-2.3 3.6-5.2 3.6-3.3.3-5.6-1.3-5.6-3.6 0-2 2.3-3.6 5.2-3.6 3-.3 5.6 1.3 5.6 3.6zm-31.1-4.5c-.7 2 1.3 4.3 4.3 4.9 2.6 1 5.6 0 6.2-2s-1.3-4.3-4.3-5.2c-2.6-.7-5.5.3-6.2 2.3zm44.2-1.7c-2.9.7-4.9 2.6-4.6 4.9.3 2 2.9 3.3 5.9 2.6 2.9-.7 4.9-2.6 4.6-4.6-.3-1.9-3-3.2-5.9-2.9zM244.8 8C106.1 8 0 113.3 0 252c0 110.9 69.8 205.8 169.5 239.2 12.8 2.3 17.3-5.6 17.3-12.1 0-6.2-.3-40.4-.3-61.4 0 0-70 15-84.7-29.8 0 0-11.4-29.1-27.8-36.6 0 0-22.9-15.7 1.6-15.4 0 0 24.9 2 38.6 25.8 21.9 38.6 58.6 27.5 72.9 20.9 2.3-16 8.8-27.1 16-33.7-55.9-6.2-112.3-14.3-112.3-110.5 0-27.5 7.6-41.3 23.6-58.9-2.6-6.5-11.1-33.3 2.6-67.9 20.9-6.5 69 27 69 27 20-5.6 41.5-8.5 62.8-8.5s42.8 2.9 62.8 8.5c0 0 48.1-33.6 69-27 13.7 34.7 5.2 61.4 2.6 67.9 16 17.7 25.8 31.5 25.8 58.9 0 96.5-58.9 104.2-114.8 110.5 9.2 7.9 17 22.9 17 46.4 0 33.7-.3 75.4-.3 83.6 0 6.5 4.6 14.4 17.3 12.1C428.2 457.8 496 362.9 496 252 496 113.3 383.5 8 244.8 8zM97.2 352.9c-1.3 1-1 3.3.7 5.2 1.6 1.6 3.9 2.3 5.2 1 1.3-1 1-3.3-.7-5.2-1.6-1.6-3.9-2.3-5.2-1zm-10.8-8.1c-.7 1.3.3 2.9 2.3 3.9 1.6 1 3.6.7 4.3-.7.7-1.3-.3-2.9-2.3-3.9-2-.6-3.6-.3-4.3.7zm32.4 35.6c-1.6 1.3-1 4.3 1.3 6.2 2.3 2.3 5.2 2.6 6.5 1 1.3-1.3.7-4.3-1.3-6.2-2.2-2.3-5.2-2.6-6.5-1zm-11.4-14.7c-1.6 1-1.6 3.6 0 5.9 1.6 2.3 4.3 3.3 5.6 2.3 1.6-1.3 1.6-3.9 0-6.2-1.4-2.3-4-3.3-5.6-2z"></path>
</symbol>
<symbol id="linkedin" viewBox="0 0 448 512">
<title>linkedin</title>
<path d="M100.3 480H7.4V180.9h92.9V480zM53.8 140.1C24.1 140.1 0 115.5 0 85.8 0 56.1 24.1 32 53.8 32c29.7 0 53.8 24.1 53.8 53.8 0 29.7-24.1 54.3-53.8 54.3zM448 480h-92.7V334.4c0-34.7-.7-79.2-48.3-79.2-48.3 0-55.7 37.7-55.7 76.7V480h-92.8V180.9h89.1v40.8h1.3c12.4-23.5 42.7-48.3 87.9-48.3 94 0 111.3 61.9 111.3 142.3V480z"></path>
</symbol>
<symbol id="codepen" viewBox="0 0 512 512">
<title>codepen</title>
<path d="M502.285 159.704l-234-156c-7.987-4.915-16.511-4.96-24.571 0l-234 156C3.714 163.703 0 170.847 0 177.989v155.999c0 7.143 3.714 14.286 9.715 18.286l234 156.022c7.987 4.915 16.511 4.96 24.571 0l234-156.022c6-3.999 9.715-11.143 9.715-18.286V177.989c-.001-7.142-3.715-14.286-9.716-18.285zM278 63.131l172.286 114.858-76.857 51.429L278 165.703V63.131zm-44 0v102.572l-95.429 63.715-76.857-51.429L234 63.131zM44 219.132l55.143 36.857L44 292.846v-73.714zm190 229.715L61.714 333.989l76.857-51.429L234 346.275v102.572zm22-140.858l-77.715-52 77.715-52 77.715 52-77.715 52zm22 140.858V346.275l95.429-63.715 76.857 51.429L278 448.847zm190-156.001l-55.143-36.857L468 219.132v73.714z"></path>
</symbol>
</defs>
</svg>
