<svg xmlns="http://www.w3.org/2000/svg" viewBox="0 0 613.08 132.19"><title>malls-of-cairo</title><g id="Layer_2" data-name="Layer 2"><g id="Layer_1-2" data-name="Layer 1"><path d="M122.17,57.45q10.89-12.66,20-23.75t9.15-13.09c0-.58-.58-1.23-1.75-1.94a6,6,0,0,0-2.7-1.07,3.39,3.39,0,0,0-2.19,1.32,3.41,3.41,0,0,1-2.13,1.32l-1.75-.51q-4.4,0-12.91,6.58T103.31,47.43Q87.2,62,77.31,70c-.17.17-.25,0-.25-.5a3.57,3.57,0,0,1,.38-1.25l7.64-14.41q3.26-7.16,22.18-34.21a3.09,3.09,0,0,0,1.12-2c0-.91-.81-1.37-2.44-1.37a27.78,27.78,0,0,0-7.33,1.5q-7.39,4-25,20.17t-33,31.26Q25.18,84.27,24.18,84.89q-4.63,4.52-22.93,23.18C.42,108.82,0,109.36,0,109.7s.46.5,1.38.5q2.51-.49,14.66-4.51,7-3.63,22.93-21L65.78,55.32q1.75-2,11.28-12.28t9.65-10.27l.12.12A5.19,5.19,0,0,1,86,34.65l-5.89,7.64A312.39,312.39,0,0,0,63.9,69.79q-7.26,14-9.77,23.12a17.88,17.88,0,0,0,2.13,9.15q1.25,2.13,2.82,2.13a2.24,2.24,0,0,0,2.19-1.63Q65,96.92,81.44,78.12,85.58,73.25,102.93,57t24.44-22.62c4.71-4.22,7.08-6.24,7.08-6.08s-.36.65-1.07,1.45L121.29,43.23q-11,12.35-19.92,23-6.77,8.15-9.46,12.15t-5.52,9A31.56,31.56,0,0,0,82.82,96a37.46,37.46,0,0,0-.75,7.7c.83,5.77,2.26,9.32,4.26,10.65a11.08,11.08,0,0,0,2.82,1.32,13.64,13.64,0,0,0,3.32.31q2.13,0,2.13-.87l-.37-1.26q-1.26-4.5-1.26-13,0-5,9.15-17.85T122.17,57.45Z" style="fill:#7fc1d3"/><path d="M306.73,65.22l-3,2.25Q289.18,78.26,279.79,83a3.13,3.13,0,0,1-1,.38.22.22,0,0,1-.25-.25A28.81,28.81,0,0,1,280,79.69a51.25,51.25,0,0,0,2.82-9.34,63,63,0,0,0,1.37-13.65c0-.84-1.17-1.57-3.5-2.2a22.88,22.88,0,0,0-5-.94c-1,0-2.13.84-3.38,2.51q-16,14.42-25.31,20.8a9,9,0,0,0-1.82,1.25l0,.09q-5.43,3.58-11.36,7.18-12.21,7.39-16.35,7.39-2.13,0-2.13-3.88,0-6,8.4-11.53,10.26-6.51,22.24-15.72A159.14,159.14,0,0,0,267,42.29q8.89-9.78,8.9-12.66l-.63-1.25a7.75,7.75,0,0,0-1.75-2.69,3.77,3.77,0,0,0-2.76-1.32,10.75,10.75,0,0,0-3.38.63,105.32,105.32,0,0,0-22.87,12.4,111.16,111.16,0,0,0-17.67,15.29A138.78,138.78,0,0,0,214.7,68c-1.21,1.77-2.28,3.44-3.25,5q-8.7,6.19-18.93,12.39-12.21,7.39-16.35,7.39-2.13,0-2.13-3.88,0-6,8.39-11.53,10.27-6.51,22.25-15.72a159.14,159.14,0,0,0,21.11-19.36q8.9-9.78,8.89-12.66l-.62-1.25a7.79,7.79,0,0,0-1.76-2.69,3.73,3.73,0,0,0-2.75-1.32,10.81,10.81,0,0,0-3.39.63A105.48,105.48,0,0,0,203.3,37.4a110.71,110.71,0,0,0-17.67,15.29A138.91,138.91,0,0,0,173.47,68c-1.13,1.67-2.15,3.25-3.07,4.76q-17.57,12.36-27.06,16.92c.17-1.59,1.17-3.67,3-6.26,1.08-1.51,2.13-2.86,3.13-4.08s2.67-3.19,5-6,4.39-5.22,6.14-7.39c1.17-1,1.76-1.92,1.76-2.76a2.48,2.48,0,0,0-.76-1.94,2.94,2.94,0,0,0-1.5-.81A3.68,3.68,0,0,0,157.75,59a3.43,3.43,0,0,0-2.25,1.26c-.93-2.18-2.18-3.3-3.76-3.39q-6.27,0-14.73,4.76A79.67,79.67,0,0,0,121.66,72.8,98,98,0,0,0,109.82,86q-4.95,6.7-4.95,10a7.5,7.5,0,0,0,1.51,5,6.72,6.72,0,0,0,2.44,2.07,14.5,14.5,0,0,0,1.57.43q3.75,0,9.83-4.32a68.81,68.81,0,0,0,8.59-6.89c1.67-1.71,3-3.15,4.13-4.32.33-.34.56-.5.69-.5s.19.12.19.37l-1,8q0,3.88,1,5.39a3.76,3.76,0,0,0,3.38,1.5q2.38,0,12-6.89,4-2.88,9.08-7c2.48-2,4.74-3.83,6.81-5.55A18.29,18.29,0,0,0,163.76,89q0,9.53,3.26,12.28a8.92,8.92,0,0,0,3,1.63,14.88,14.88,0,0,0,3.76.38,17.25,17.25,0,0,0,4.64-.63q7-2.13,21.8-14,2.85-2.28,5.92-4.82A17,17,0,0,0,205,89q0,9.53,3.26,12.28a8.8,8.8,0,0,0,3,1.63,14.88,14.88,0,0,0,3.76.38,17.2,17.2,0,0,0,4.64-.63q7-2.13,21.8-14,5.64-4.52,12.15-10c1.42-1.2,2.68-2.26,3.8-3.22l10.11-7.8a5.28,5.28,0,0,1,3.07-1.38c.88,0,1.32.29,1.32.88a35,35,0,0,1-1.51,8.71,35.31,35.31,0,0,1-5.2,10.77q-3.69,5.33-8,5.33t-6.58-2.13a12,12,0,0,1-1.44-2.2,4.84,4.84,0,0,1-.69-1.94,3.29,3.29,0,0,0-2.44.94,2.87,2.87,0,0,0-.94,2.07q0,14.16,11.78,14.16,4.75,0,13.41-5.14a131.15,131.15,0,0,0,16.22-11.34q7.59-6.19,13.79-11.46t6.45-5.27a3,3,0,0,0,1.13-2.25A2.61,2.61,0,0,0,306.73,65.22Zm-77.81.37q4.14-5.76,15-16T261.25,35l2.13-1,.12.25q0,1.75-15.85,17.17t-19,15.41c-.17,0-.25-.11-.25-.32A1.84,1.84,0,0,1,228.92,65.59Zm-41.22,0q4.13-5.76,15-16T220,35l2.13-1,.13.25q0,1.75-15.85,17.17t-19,15.41c-.17,0-.25-.11-.25-.32A1.84,1.84,0,0,1,187.7,65.59Zm-58.45,18.8q-7.71,6.14-9.21,6.14c-.17,0-.26-.08-.26-.25q0-2.13,5.58-8.21a84.48,84.48,0,0,1,13.22-11.53q7.63-5.45,12.4-5.45c.25,0,.38.06.38.19s-.17.36-.5.69l-7,6.14Q137,78.25,129.25,84.39Z" style="fill:#7fc1d3"/><path d="M389.44,3.82a3.3,3.3,0,0,0-1.5-2.69Q386.44,0,381.8,0c-2,0-3.26.84-3.76,2.51l-45.67,51.7q-3.86,2.59-8.39,5.18-7.46,4.26-11,4.26,7.14-10.9,7.14-17.92a5,5,0,0,0-2-4,3.89,3.89,0,0,0-2.88-1.56,4.21,4.21,0,0,0-2.2.62,2.08,2.08,0,0,1-1.31.51,2.25,2.25,0,0,1-1.13-.63,2.71,2.71,0,0,0-1.88-.57A56.08,56.08,0,0,0,284.82,57q-9.52,11.46-9.52,19.73a10,10,0,0,0,1,4.76q1.76,3.77,8.52,4.77,10.15,0,24.31-16.42a14.6,14.6,0,0,0,2.25.25,21.68,21.68,0,0,0,9.38-2.68l-11,12.46q-22.67,25.56-22.68,41.09,1.64,11.28,7.9,11.28,5,0,12.84-6.7a72.61,72.61,0,0,0,13.78-15.92q6-9.21,6-15t-1.76-8.52a4,4,0,0,1-.63-1.25,43.19,43.19,0,0,0,12.16-5.27A116.37,116.37,0,0,0,350,71q5.7-4.44,11.84-9.9t8.27-7.52c1.42-1.37,2.52-2.44,3.32-3.19A3.28,3.28,0,0,0,374.66,48a2.63,2.63,0,0,0-1.13-2.13,366.49,366.49,0,0,1-45.61,29.07,3.21,3.21,0,0,1-1.44.37,1.5,1.5,0,0,1-.81-.12L386.81,8.39C388.57,6.39,389.44,4.87,389.44,3.82ZM295.6,72.92q-5.89,5.27-9.9,5.27c-.42,0-.63-.34-.63-1q0-3,4.76-11a42.74,42.74,0,0,1,6.89-8.4,24.41,24.41,0,0,1,1.82,3.32,14.78,14.78,0,0,0,3.2,4.58C301.57,67,299.52,69.42,295.6,72.92Zm14.72-18.67q-2.7,5.14-4.83,5.14c-.25,0-.62-.37-1.12-1.13a4,4,0,0,1-.76-1.5q0-1.5,3.95-5.39c2.63-2.59,4.37-3.88,5.2-3.88.17,0,.25.27.25.81S312.11,50.83,310.32,54.25Zm6.95,46.11a86.4,86.4,0,0,1-11.78,14.41q-6.51,6.39-9.77,6.39c-.5,0-.75-.31-.75-.94s.88-2.82,2.63-6.57a124,124,0,0,1,8.14-14.16A79.64,79.64,0,0,1,317.27,85.2,4.43,4.43,0,0,1,319.9,84c1.76,0,2.63,1.4,2.63,4.2S320.78,95,317.27,100.36Z" style="fill:#fff7e8"/><path d="M410.54,79.25A20.64,20.64,0,0,0,412.73,75c0-.33-.1-.5-.31-.5s-.61.25-1.19.75a162.47,162.47,0,0,1-24.75,14.41,154.53,154.53,0,0,1-19.61,8c-4.51,1.34-7.51,2-9,2-1.75,0-2.63-.91-2.63-2.75q0-4.52,4.14-12.72a101,101,0,0,1,11.9-17.79,157.5,157.5,0,0,1,17.35-18.17A87.47,87.47,0,0,1,410.6,34,58.25,58.25,0,0,1,435,28.25c2.25,0,3.38.59,3.38,1.76q0,2.76-12.78,12.4t-15.29,9.65c-.08,0-.12-.08-.12-.25a15.72,15.72,0,0,1,3-2.51c2.83-1.58,4.26-3,4.26-4.13,0-.67-.19-1-.57-1s-.94.42-1.69,1.25q-5.39,4-16,8.27c-2,.92-3,2-3,3.26,0,2.25,1.21,4,3.64,5.26a15.27,15.27,0,0,0,7,1.88q7.4,0,17.23-5.07A66,66,0,0,0,441,46.74q7.08-7.22,7.08-13.41c0-4.14-2.11-7.22-6.33-9.27A31,31,0,0,0,428,21q-12.9,0-27.56,6a111.73,111.73,0,0,0-26.69,15.29A89,89,0,0,0,353.66,63.9q-8.09,12.34-8.21,24l.12,2.38a31,31,0,0,0,3.89,12.65,14.7,14.7,0,0,0,5.57,5.89q3.83,2.39,10.53,2.38a35.65,35.65,0,0,0,14.66-3.63,53.22,53.22,0,0,0,13.59-8.71A98.65,98.65,0,0,0,403.9,88.4,72.61,72.61,0,0,0,410.54,79.25Z" style="fill:#7fc1d3"/><path d="M492.55,57.32a11.49,11.49,0,0,0,6.2-2.06A23.35,23.35,0,0,0,503,52c.71-.79,1.32-1.5,1.82-2.13a3.52,3.52,0,0,0,.75-2.26c0-.87-.59-2-1.76-3.44-.25-.34-.79-.5-1.62-.5-1.93,0-4.39,1.19-7.4,3.57s-4.51,4.82-4.51,7.33A2.47,2.47,0,0,0,492.55,57.32Z" style="fill:#7fc1d3"/><path d="M612,68.48l-5.64,4.38a123.22,123.22,0,0,1-13.1,8.52q-7.46,4.26-11,4.26,7.14-10.9,7.14-17.92a5,5,0,0,0-2-4,3.92,3.92,0,0,0-2.88-1.56,4.19,4.19,0,0,0-2.2.62,2.08,2.08,0,0,1-1.31.51,2.25,2.25,0,0,1-1.13-.63,2.73,2.73,0,0,0-1.88-.57,56,56,0,0,0-23.93,16.86c-.55.66-1.07,1.31-1.58,2Q529.11,96.54,524,96.54c-.42,0-.63-.12-.63-.37q0-2.39,3.63-6.27a62.53,62.53,0,0,1,7.77-7q4.14-3.12,8.46-6.13l5.14-3.58a1.68,1.68,0,0,0,.81-1.44q0-.87-3.13-5a3.9,3.9,0,0,0-2.82-.88,17.81,17.81,0,0,0-5.2,1.07A17.59,17.59,0,0,1,533,68c-1.22,0-4.08-1.12-8.59-3.38s-7.22-3.38-8.14-3.38A12.52,12.52,0,0,0,511,62c-1.09.55-1.63,1.65-1.63,3.32a3.81,3.81,0,0,0,.37,1.26c.75,1.75,2.47,3.55,5.14,5.38q-7.52,5.52-14.41,10.28c-.19.15-.36.3-.53.45q-12,7.64-24.28,14.08a10.77,10.77,0,0,1-3,.75c-1,0-1.5-.45-1.5-1.37a6.51,6.51,0,0,1,1-3.14,46.58,46.58,0,0,1,6.46-10.83c3.21-4.31,5.64-7.33,7.26-9.09s2.84-3,3.64-3.88,1.19-1.46,1.19-1.88a1.12,1.12,0,0,0-.75-1,12.79,12.79,0,0,0-5-1A9.17,9.17,0,0,0,480,66.72q-1.5.63-6.14,6.33c-.6.73-1.19,1.51-1.78,2.29q-19.67,14-29.92,19c.16-1.59,1.17-3.68,3-6.27,1.08-1.5,2.13-2.86,3.13-4.07s2.67-3.2,5-6,4.38-5.22,6.14-7.39c1.17-1,1.75-1.92,1.75-2.76a2.51,2.51,0,0,0-.75-1.94,3,3,0,0,0-1.5-.82,3.72,3.72,0,0,0-2.38-1.5,3.49,3.49,0,0,0-2.26,1.25q-1.38-3.26-3.76-3.38-6.27,0-14.72,4.76A79.32,79.32,0,0,0,420.5,77.43a98.09,98.09,0,0,0-11.84,13.16q-4.95,6.7-5,10a7.46,7.46,0,0,0,1.5,5,6.81,6.81,0,0,0,2.45,2.07,12.72,12.72,0,0,0,1.56.44q3.76,0,9.84-4.32a67.78,67.78,0,0,0,8.58-6.89q2.5-2.58,4.14-4.33c.33-.33.56-.5.69-.5s.19.13.19.38l-1,8q0,3.88,1,5.38a3.73,3.73,0,0,0,3.38,1.51q2.37,0,12-6.89,4-2.88,9.08-7c2.42-1.93,4.63-3.74,6.66-5.42q-3.35,6.12-3.34,9.62,0,10.27,9.65,10.28a18.19,18.19,0,0,0,4.89-.63q7-2.13,21.8-14,5.64-4.52,12.15-10t8.84-7.64l.32-.3a10.41,10.41,0,0,0,4.12,2A21.75,21.75,0,0,0,528,78.37q-10.28,7.53-13.47,12a15.62,15.62,0,0,0-3.2,9.21q0,8.78,8.77,8.77,5.64,0,18.11-8.83,3.56-2.53,6.9-5.08a17.21,17.21,0,0,0-.58,4.26,10,10,0,0,0,1,4.76q1.76,3.76,8.52,4.77,10.14,0,24.31-16.42a14.6,14.6,0,0,0,2.25.25Q591.28,92,612,72.86a3,3,0,0,0,1.12-2.25A2.6,2.6,0,0,0,612,68.48ZM428.08,89q-7.71,6.15-9.21,6.14a.22.22,0,0,1-.25-.25q0-2.13,5.58-8.2a83.52,83.52,0,0,1,13.22-11.53q7.63-5.45,12.4-5.45c.25,0,.38.06.38.19s-.17.35-.5.69l-7,6.14Q435.78,82.89,428.08,89Zm136.76,5.89q-5.88,5.27-9.9,5.27c-.41,0-.62-.34-.62-1q0-3,4.76-11a42.39,42.39,0,0,1,6.89-8.4,25.88,25.88,0,0,1,1.82,3.32A15,15,0,0,0,571,87.65C570.81,89,568.77,91.41,564.84,94.91Zm14.73-18.67q-2.7,5.15-4.83,5.14c-.25,0-.62-.37-1.13-1.13a3.87,3.87,0,0,1-.75-1.5q0-1.5,3.95-5.39t5.2-3.88c.17,0,.25.27.25.81S581.36,72.82,579.57,76.24Z" style="fill:#7fc1d3"/></g></g></svg>